<?xml version="1.0" standalone="no"?>
<!DOCTYPE svg PUBLIC "-//W3C//DTD SVG 20010904//EN"
 "http://www.w3.org/TR/2001/REC-SVG-20010904/DTD/svg10.dtd">
<svg version="1.0" xmlns="http://www.w3.org/2000/svg"
 width="141.000000pt" height="98.000000pt" viewBox="0 0 141.000000 98.000000"
 preserveAspectRatio="xMidYMid meet">

<g transform="translate(0.000000,98.000000) scale(0.100000,-0.100000)"
fill="#000000" stroke="none">
<path d="M226 811 c-3 -5 5 -16 19 -25 14 -9 25 -23 25 -31 0 -9 -27 -49 -60
-90 l-59 -76 20 -39 c12 -22 24 -40 28 -40 5 0 34 9 66 20 32 11 64 20 70 20
14 0 39 -56 49 -111 3 -19 20 -56 36 -82 20 -32 34 -72 42 -124 l13 -78 35 0
35 0 3 102 c1 57 4 103 5 103 2 0 48 -18 102 -41 112 -46 148 -47 224 -10 25
11 48 21 53 21 17 0 41 -54 47 -108 6 -54 8 -57 35 -60 43 -5 51 11 52 101 0
55 8 102 21 142 l21 60 1 -62 c1 -49 4 -63 16 -63 13 0 15 26 15 176 l0 176
-29 29 -29 29 -264 0 c-209 1 -268 4 -288 15 -14 8 -52 14 -85 15 -49 0 -62 4
-73 20 -15 24 -38 26 -50 4 -9 -16 -11 -16 -33 0 -26 18 -55 21 -63 7z m201
-61 c30 0 70 -7 90 -15 28 -12 87 -15 294 -15 246 0 260 -1 279 -20 14 -14 20
-33 20 -65 0 -25 -3 -44 -7 -44 -29 5 -33 -4 -33 -69 0 -38 -9 -97 -20 -137
-14 -45 -20 -91 -18 -129 2 -41 -1 -61 -9 -63 -9 -3 -13 5 -13 24 0 44 -18 95
-44 127 l-23 30 -67 -32 c-37 -18 -78 -32 -92 -32 -14 0 -76 21 -137 46 -62
25 -118 49 -125 51 -11 5 -13 -16 -11 -106 3 -150 -6 -158 -27 -21 -3 25 -19
64 -34 88 -16 24 -32 58 -35 75 -11 59 -47 147 -60 147 -6 0 -38 -9 -70 -20
-73 -25 -82 -25 -90 0 -5 15 5 35 36 73 60 75 121 129 133 117 6 -6 34 -10 63
-10z"/>
<path d="M297 694 c-14 -15 -6 -34 14 -34 14 0 19 5 17 17 -3 18 -20 27 -31
17z"/>
</g>
</svg>
